<mxfile host="app.diagrams.net" modified="2022-01-11T12:27:36.640Z" agent="5.0 (Windows NT 10.0; Win64; x64) AppleWebKit/537.36 (KHTML, like Gecko) Chrome/96.0.4664.110 Safari/537.36" etag="zEXurzgc9mkFV4QxrlbI" version="16.1.4" type="github">
  <diagram id="Z4nlsFzuIb_d8iARBk1e" name="Page-1">
    <mxGraphModel dx="1422" dy="706" grid="1" gridSize="10" guides="1" tooltips="1" connect="1" arrows="1" fold="1" page="1" pageScale="1" pageWidth="827" pageHeight="1169" math="0" shadow="0">
      <root>
        <mxCell id="0" />
        <mxCell id="1" parent="0" />
        <mxCell id="b752H4AnRtl3ux2CmrhT-1" value="" style="ellipse;whiteSpace=wrap;html=1;aspect=fixed;" vertex="1" parent="1">
          <mxGeometry x="250" y="180" width="80" height="80" as="geometry" />
        </mxCell>
        <mxCell id="b752H4AnRtl3ux2CmrhT-3" style="edgeStyle=orthogonalEdgeStyle;rounded=0;orthogonalLoop=1;jettySize=auto;html=1;" edge="1" parent="1" source="b752H4AnRtl3ux2CmrhT-2" target="b752H4AnRtl3ux2CmrhT-1">
          <mxGeometry relative="1" as="geometry" />
        </mxCell>
        <mxCell id="b752H4AnRtl3ux2CmrhT-2" value="" style="shape=cylinder3;whiteSpace=wrap;html=1;boundedLbl=1;backgroundOutline=1;size=15;" vertex="1" parent="1">
          <mxGeometry x="90" y="180" width="70" height="80" as="geometry" />
        </mxCell>
      </root>
    </mxGraphModel>
  </diagram>
</mxfile>
